<svg width="18" height="13" viewBox="0 0 18 13" fill="none" xmlns="http://www.w3.org/2000/svg">
<path d="M14.7557 11.7086L3.24341 0.196673L3.24095 0.193861C3.17863 0.132042 3.10473 0.0831049 3.0235 0.0498432C2.94226 0.0165815 2.85526 -0.000353508 2.76748 5.59349e-06C2.67969 0.000364695 2.59284 0.0180109 2.51187 0.0519361C2.43091 0.0858614 2.35742 0.135402 2.2956 0.197728C2.23378 0.260055 2.18485 0.333947 2.15158 0.415186C2.11832 0.496426 2.10139 0.583421 2.10175 0.671205C2.10247 0.848493 2.17359 1.01823 2.29947 1.14308L3.3074 2.15101C2.08505 2.98817 1.03292 4.04997 0.206969 5.27992C0.0720918 5.47905 0 5.71405 0 5.95456C0 6.19508 0.0720918 6.43007 0.206969 6.62921C2.31529 9.74968 5.65759 11.5778 8.9999 11.555C10.0825 11.5589 11.1579 11.3786 12.1801 11.022L13.8117 12.6536C13.9374 12.7752 14.1059 12.8427 14.2808 12.8415C14.4557 12.8403 14.6232 12.7706 14.7473 12.6472C14.8713 12.5239 14.942 12.3568 14.9442 12.1819C14.9463 12.0069 14.8798 11.8381 14.7588 11.7118L14.7557 11.7086ZM8.9999 9.74054C8.36666 9.74031 7.74358 9.58138 7.1876 9.27827C6.63162 8.97517 6.16046 8.53756 5.81719 8.00544C5.47393 7.47331 5.26949 6.86365 5.22257 6.23215C5.17565 5.60066 5.28775 4.96747 5.54861 4.39046L6.60154 5.44339C6.51673 5.84305 6.53312 6.25756 6.64922 6.64927C6.76532 7.04098 6.97745 7.39747 7.26634 7.68637C7.55523 7.97526 7.91173 8.18739 8.30344 8.30349C8.69515 8.41959 9.10966 8.43598 9.50931 8.35117L10.5622 9.40409C10.0715 9.62661 9.53874 9.74134 8.9999 9.74054Z" fill="#ADAEB8"/>
<path d="M17.7927 5.27818C15.6844 2.15595 12.3421 0.327824 8.99981 0.350676C7.91719 0.346754 6.84178 0.52698 5.81958 0.883644L7.43677 2.50083C8.13852 2.18326 8.92038 2.0871 9.67817 2.22516C10.436 2.36322 11.1337 2.72895 11.6783 3.27361C12.223 3.81826 12.5887 4.51598 12.7268 5.27377C12.8648 6.03155 12.7687 6.81342 12.4511 7.51517L14.692 9.75603C15.9145 8.919 16.9668 7.85718 17.7927 6.62712C17.9275 6.42802 17.9996 6.19309 17.9996 5.95265C17.9996 5.7122 17.9275 5.47728 17.7927 5.27818Z" fill="#ADAEB8"/>
<path d="M8.99989 3.50098C8.82869 3.501 8.65796 3.51891 8.49048 3.55441L11.3983 6.46184C11.4741 6.10462 11.4691 5.73497 11.3838 5.3799C11.2985 5.02483 11.1349 4.6933 10.9051 4.40953C10.6752 4.12577 10.3849 3.89693 10.0553 3.73974C9.72564 3.58255 9.36507 3.50098 8.99989 3.50098Z" fill="#ADAEB8"/>
</svg>
