<svg width="18" height="18" viewBox="0 0 18 18" fill="none" xmlns="http://www.w3.org/2000/svg">
<g clip-path="url(#clip0_207_257)">
<path d="M9.00045 2.86365C7.05756 2.8648 5.16 3.45073 3.55474 4.54518C1.94947 5.63963 0.710821 7.19191 0 9.00001C0.709948 10.8087 1.94839 12.3615 3.55387 13.456C5.15934 14.5505 7.05736 15.1359 9.00045 15.1359C10.9435 15.1359 12.8416 14.5505 14.447 13.456C16.0525 12.3615 17.291 10.8087 18.0009 9.00001C17.2901 7.19191 16.0514 5.63963 14.4462 4.54518C12.8409 3.45073 10.9433 2.8648 9.00045 2.86365ZM9.00045 13.0909C8.1913 13.0909 7.40033 12.851 6.72755 12.4015C6.05477 11.952 5.5304 11.313 5.22075 10.5655C4.91111 9.81802 4.83009 8.99547 4.98795 8.20191C5.1458 7.40836 5.53544 6.67943 6.1076 6.1073C6.67975 5.53518 7.40872 5.14556 8.20231 4.98771C8.99591 4.82986 9.8185 4.91087 10.5661 5.2205C11.3136 5.53014 11.9526 6.05448 12.4021 6.72722C12.8516 7.39997 13.0916 8.19091 13.0916 9.00001C13.0916 10.085 12.6605 11.1255 11.8933 11.8927C11.1261 12.6599 10.0855 13.0909 9.00045 13.0909ZM9.00045 6.54547C8.51496 6.54547 8.04038 6.68942 7.63671 6.95913C7.23304 7.22884 6.91842 7.61219 6.73263 8.0607C6.54684 8.50921 6.49823 9.00273 6.59295 9.47887C6.68766 9.955 6.92145 10.3924 7.26474 10.7356C7.60803 11.0789 8.04541 11.3127 8.52157 11.4074C8.99773 11.5021 9.49128 11.4535 9.93981 11.2677C10.3883 11.0819 10.7717 10.7673 11.0414 10.3637C11.3112 9.96004 11.4551 9.48547 11.4551 9.00001C11.4551 8.34903 11.1965 7.7247 10.7362 7.26439C10.2758 6.80407 9.65147 6.54547 9.00045 6.54547Z" fill="#ABACB0"/>
</g>
<defs>
<clipPath id="clip0_207_257">
<rect width="18.0009" height="18" fill="white"/>
</clipPath>
</defs>
</svg>
